<?xml version="1.0" encoding="UTF-8"?>
<svg id="Layer_1" data-name="Layer 1" xmlns="http://www.w3.org/2000/svg" viewBox="0 0 512 512">
  <defs>
    <style>
      .cls-1 {
        fill: #fff;
      }

      .cls-2 {
        fill: #807cba;
        stroke: #807cba;
      }

      .cls-2, .cls-3 {
        stroke-miterlimit: 10;
      }

      .cls-3 {
        stroke: #fff;
      }
    </style>
  </defs>
  <rect class="cls-3" x="-7.39" y="-4.7" width="525.76" height="525.76"/>
  <g id="sythe_symbol" data-name="sythe symbol">
    <g>
      <path class="cls-2" d="M65.7,257.03c20.3-14.88,36.26-13.82,41.96-13.03,14.44,2.01,26.58,11.16,37.03,19.03,11.45,8.63,15.14,14.37,26.68,19.34,8.81,3.8,16.94,4.87,22.55,5.17-2.44-.82-7.58-2.91-12-7.96-3.48-3.98-5-8.07-5.69-10.45,4.59-8.64,15.33-25.92,35.99-37.44,14.2-7.92,48.06-21.48,63.3-5.59,10.63,11.09,10.12,34.36-.31,44.37-1.21,1.17-6.45,6.2-13.76,5.59-8.86-.74-13.66-9.21-14.17-10.14,1.41.38,8.26,2.05,13.03-1.76,6.36-5.07,4.77-16.47.31-23.06-5.23-7.75-14.45-8.91-16.76-9.2-10.12-1.28-20.98,3.32-26.68,10.86-11.42,15.11-2.49,42.56,13.96,55.85,12.97,10.47,28.35,10.32,37.13,10.24,26.36-.26,45.15-13.96,52.23-19.75,1.24-.17,2.48-.34,3.72-.52-.88-1.31-1.95-3.31-2.28-5.9-.86-6.88,4.23-12.79,7.34-15.1,7.63-5.65,17.04.18,32.06,2.69,24.41,4.07,47.36-3.34,61.64-11.79,6.01-3.56,14.81-9.86,23.31-20.89-3.23,2.47-7.83,5.67-13.69,8.79-8.25,4.39-24.05,12.8-44.47,11.58-22.2-1.33-38.15-13.34-40.96-15.51-7.38-5.72-9.89-10.13-19.65-16.13-8.93-5.49-17.3-8.24-23.06-9.72,5.13,2.71,8.71,5.75,10.96,7.96,1.32,1.29.29.44,6.62,8.07,3.99,4.8,5.73,6.74,5.58,9.52-.1,1.88-1.03,3.24-1.55,4.03-13.64,20.57-22.96,27.93-22.96,27.93-16.95,13.38-27.5,21.71-42.82,21.1-3.58-.14-18.09-.97-28.24-12.41-7.83-8.83-14.02-25.09-6.52-35.68,4.09-5.78,11.42-8.67,17.69-8.69,8.02-.02,14.97,4.68,14.58,6.21-.41,1.61-8.66-1.63-14.27,2.79-4.18,3.3-5.2,9.51-4.76,13.65,1.24,11.58,15.66,22.68,29.27,21.31,15.78-1.6,23.76-19.31,25.75-29.99,3.73-19.99-9.85-34.92-10.86-35.99-15.26-16.23-38.93-13.62-52.75-12.1-7.24.8-19.9,2.34-31.86,10.76-4.17,2.94-3.8,3.57-13.45,11.58-11.98,9.95-18.1,14.95-24.2,16.24-5.03,1.06-4.63-.75-23.27-5.07-14.79-3.43-30.4-5.57-43.85-2.26-.87.21-1.64.46-2.38.71-9.49,3.26-16.08,9.34-20.16,13.98-1.78,2.27-3.56,4.54-5.35,6.81Z"/>
      <path class="cls-2" d="M283.58,345.46c3.62-8.38,7.24-16.76,10.86-25.13-1.16-.52-2.33-1.03-3.49-1.55-2.71.96-6.64,2.13-11.48,2.71-11.76,1.43-20.71-1.51-29.51-4.4,0,0-15.01-4.93-28.59-14.99-6.28-4.65-9.69-9-10.47-10.01-.91-1.19-1.62-2.22-2.09-2.95-1.16.7-2.33,1.4-3.49,2.09,2.76,3.27,6.98,9.11,9.62,17.45,2.75,8.69,2.54,16.17,2.09,20.48.72.36,1.45.72,2.17,1.09.78-1.12,2.17-2.75,4.37-3.69,5.44-2.34,11.3,1.46,13.55,2.91.68.44,10.06,6.72,10.32,17.07.06,2.32.19,7.51-3.41,9.7-3.27,1.98-7.42.15-8.07-.16,3.48,8.27,6.85,17.38,9.85,27.3,6.35,21.01,9.45,40.31,10.86,56.7,1.55-.47,3.1-.93,4.65-1.4-.09-.91-.21-2.22-.31-3.8-.38-6-1.08-18.54,3.03-33.43,3.37-12.22,8.79-21.72,13.42-28.31-1.56.39-4.27.79-6.98-.39-5.56-2.42-6.65-9.55-7.06-12.18-1.07-6.98,1.65-12.4,3.18-15.44,2.26-4.48,6.64-10.5,9-9.7.66.22,1.03.93,1.24,1.55,1.89-1.67,2.81-1.52,3.19-1.37,2.25.92.86,8.5.77,8.97.93.28,1.86.57,2.79.85Z"/>
      <path class="cls-2" d="M226.49,181.27c-3.03,5.24-6.36,9.25-9.15,12.15,1.13.44,2.26.89,3.4,1.33,3.54-1.04,7.71-1.94,12.43-2.34,12.72-1.1,23.13,1.91,29.51,4.4h0c1.73.37,6.16,1.42,13.26,4.88,1.76.86,4.02,2.02,6.59,3.54.25.92.5,1.84.76,2.77,1.28.17,2.55.34,3.83.52-.24-1.67-.69-4.18-1.6-7.14-1.34-4.37-2.69-6.48-4.09-9.93-1.07-2.66-2.36-6.57-3.05-11.74-1.41.27-6.97,1.16-10.55-2.17-3-2.8-3.07-7.14-3.15-12.26-.06-3.69.46-6.72.93-8.74,1.09-2.05,3.38-2.72,4.81-1.91.96.54,1.51,1.73,1.5,3,1.15.04,2.31.09,3.46.13-3.77-7.47-7.48-15.99-10.76-25.52-7.18-20.93-9.9-40-10.76-55.13-1.05-.21-2.1-.41-3.15-.62.08,3.65.11,8.83-.16,15.05-.33,7.83-.58,13.82-1.94,20.89-1.02,5.32-2.97,12.87-7.06,21.62,1.26.02,2.52.03,3.78.05,2.05-1.22,5.65-2.92,8.64-1.6,5.28,2.33,5.4,12.69,3.88,19.08-.59,2.47-2.59,11.47-10.81,17.22-2.38,1.67-4.63,2.61-6.21,3.15-.42-.6-1.2-1.84-1.45-3.62-.25-1.74.13-3.14.36-3.83-1.26.09-2.52.17-3.78.26.07.21.26.84-.05,1.34-.43.69-1.68.94-2.9.26-.39.97-.78,1.95-1.16,2.92-1.12,3.42-2.8,7.55-5.35,11.97Z"/>
    </g>
    <g>
      <path class="cls-1" d="M227.62,498.79c-3.17-16.72-4.17-38.5,7.85-55.46,14.92-21.06,37.39-17.95,78.47-38.87,21.76-11.08,46.79-24.61,58.55-46.01,26.38-47.97-24.14-119.57-31.68-129.99,4.92,18.67,2.62,24.86-.49,27.01-10.73,7.41-48.09-21.54-70.28-52.52-14.56-20.32-15.7-29.6-36.9-54.83-17.51-20.84-32.45-32.76-37.63-29.58-2.6,1.59-.83,5.81-4.02,8.34-6.5,5.15-27.33-1.71-30.73-15.72-1.95-8.02,1.61-19.3,8.93-21.14,6.92-1.73,13.82,5.8,16.6,10.67,2.58,4.52,4.12,11.13,1.73,13.05-.11.09-.25.16-.25.16-1.47.83-3.47-.16-4.04-.41-1.37-.61-3.69-1.01-7.88-.06,1.19-.57,4.45-2.31,5.62-5.78,2.13-6.29-3.81-14.59-9.2-14.4-4.71.17-8.35,6.8-8.79,12.05-.86,10.27,10.37,16.71,11.95,17.57,1.9,1.05,6.12,3.37,9.97,1.88,2.79-1.08,2.71-3.13,4.54-4.05,4.15-2.07,12.93,4.24,42.55,37.9,1.77,2.01,2.67,3.01,3.59,4.11,4.35,5.18,8.69,11.22,25.36,33.29,21.85,28.94,20.82,28.69,26.81,35.26,0,0,26.29,28.8,47.67,34.16.06.01.15.04.27.07,0,0,1.33.35,2.62.89,1.03.43,6.52,5.35,12.22,13.67-3.94.88-8.95,1.4-11.28-1.28-2.49-2.87-.24-7.48-2.54-9.18-2.07-1.52-5.87.76-10.48,3.12-11.05,5.66-16.95,8.68-22.53,10.03-8.99,2.16-16.74-.12-19.82-1.07-3.76-1.16-18.17-5.49-22.39-16.87-3.16-8.5,2.36-12.85.17-24.54-1.46-7.77-5.35-13.58-8.29-17.18,4.75,8.72,5.71,15.84,5.63,20.88-.12,7.63-2.74,19.24,1.44,26.19.14.23.63,1.09,1.36,2.12,4.03,5.74,7.62,9.26,8.08,9.74,5.47,5.64-5,26.89-12.32,46.01-2.09,5.46-4.88,13.24-7.71,22.86,3.79-4.96,9.44-11.95,16.84-19.8,21.32-22.63,40.73-43.23,62.38-41.11,15.55,1.52,28.95,14.44,27.52,18.12-1.18,3.05-14.08.95-25.37-1.46,12.8,20.95,13.33,46.21,1.19,64.74-10.61,16.18-27.16,21.55-32.59,23.06-2.15.88-4.93,1.88-8.23,2.75-3.98,1.05-7.3,1.48-9.31,1.77-8.42,1.21-15.42,2.23-17.66-1.04-2.97-4.35,6.41-10.61,4.78-19.8-1.72-9.7-15.3-19.75-24.21-15.69-8.35,3.81-8.62,18.2-8.19,18.34.33.11,1.57-8.07,7.35-10.42,2.55-1.04,5.77-.62,8.45.84,2.22,1.21,2.85,3.86,3.65,7.27,1.34,5.66.32,10.23-.62,14.23-.65,2.77-2.36,8.99-4.59,9-2.49,0-4.39-7.81-4.93-7.64-.72.22,5.01,13.14.13,18.35-1.34,1.44-3.04,1.81-5.56,2.26-8.5,1.5-15.68,1.87-15.68,1.87-3.16-.22-5.51-.75-6.05.29-.52.99.96,2.69,1.34,3.16,3.88,4.9,4.89,23.57-6.58,35.69-10.9,11.51-26.42,10.1-28.33,9.9,7.1,1.55,25.94,6.72,36.83,23.7,2.07,3.23,3.58,6.46,4.69,9.54Z"/>
      <path class="cls-1" d="M189.04,507.08c14.34-.85,25.37-13.09,46.83-37.55,18.58-21.17,28.82-33.05,37.32-52.9,6.32-14.77,8.62-26.68,10.42-36.83,4.1-23.11,7.47-61.96-5.33-111.91-2.9-15.55-7.86-34.21-16.57-54.33-16.17-37.34-38.26-63.55-54.5-79.73-6.23-6.2-17.38-21.45-12.9-33.15,1.6-4.17,4.78-6.69,6.62-8.14,7.68-6.08,15.98-5.5,33.37-6.05,18.3-.58,17.31-1.48,25.69-1.42,41.56.3,74.7,19.01,74.71,19.01,39.06,22.05,56.13,57.43,61.74,70.69-.72-9.17-2.57-19.92-6.67-31.41-13.69-38.38-43.3-59.4-56.4-67.52-16.82-12.58-40.47-27.64-70.9-39.89-27.21-10.96-51.91-16.47-71.3-19.35-1.4-1.99-6.99-9.43-16.93-11.31-8.08-1.53-14.46,1.49-18.61,3.46-9.45,4.47-14.8,11.65-17.31,15.65,6.06.21,14.98,1.49,22.48,7.45,14.34,11.39,11.9,30.68,19.58,59.24,2.97,11.07,2.05,24.42,12.59,42.67,32.16,30.67,54.3,63.89,62.1,82.6,11.09,26.6,14.63,49.6,17.67,69.3,5.01,32.49,4.66,59.14,3.83,75-.86,16.54-2.73,30.51-4.48,40.99-.37,2.24-2.32,7.97-5.32,14.99-11.35,26.53-34.15,54.11-55.29,63.46-4.79,2.12-11.67,4.26-20.23,10.5-5.02,3.66-6.73,6.22-11.01,7.52-10.17,3.09-18.74-.88-20.76-1.89,6.21,4.91,16.82,11.61,29.55,10.86Z"/>
      <path d="M207.12,73.48c5.43,7.89,24.55,7.4,37.21-.07,8.86-5.22,12.58-12.69,20.18-11.91,5.96.61,9.38,5.79,10.11,5.12,1.1-1.01-4.95-14.35-17.22-21.06-14.87-8.13-37.62-5.85-47.12,7.7-3.75,5.35-6.98,14.65-3.15,20.21Z"/>
      <path class="cls-1" d="M230.5,67.94c5.84,3.89,15.32,2.44,18.78-3.67,2.1-3.71,1.63-8.47-.46-11.96-2.54-4.23-7.45-6.62-12.59-6.09.76.07,7.4.75,10.79,6.48.71,1.19,3.09,5.69,1.18,9.77-2.49,5.35-11.09,7.37-16.44,3.96-5.24-3.34-6.96-11.62-4.29-13.96,1.69-1.48,5.03-.47,7.27.47-3.01-2.18-6.6-4.22-8.53-2.98-3.16,2.04-2.64,13.33,4.31,17.96Z"/>
      <path class="cls-1" d="M261.81,410.17c-.29-.45-15.89,14-35.06,13.17-22.36-.97-38.15-22.41-44.71-31.34-18.34-24.97-31.1-65.79-14.49-87.15.67-.86,12.18-15.32,22.91-12.14,5.44,1.61,8.42,7.09,9.74,10.08-.65-3.27-2.14-7.57-5.81-10.39-8.24-6.33-22.85-1.55-30,4.42-19.74,16.49-4.38,62.78-.7,73.95,10.76,32.64,30.78,56.35,48.88,72.4,41.01-26.71,49.44-32.68,49.24-33Z"/>
    </g>
  </g>
</svg>